<svg width="208" height="34" viewBox="0 0 208 34" fill="none" xmlns="http://www.w3.org/2000/svg">
<path fill-rule="evenodd" clip-rule="evenodd" d="M117.586 24.6754L110.237 5.55664H105.247C105.227 5.5826 105.221 5.59188 105.201 5.61766L114.965 29.962H120.332L129.924 5.61747C129.905 5.59169 129.898 5.58242 129.879 5.55664L125.028 5.55683L117.678 24.6754H117.586Z" fill="black"/>
<path fill-rule="evenodd" clip-rule="evenodd" d="M204.787 18.321L196.752 13.7133C196.039 13.3046 195.542 12.595 195.553 11.8163C195.569 10.6635 196.582 9.73013 197.826 9.73013H206.298V5.55664H198.029C194.236 5.55664 190.993 8.444 191.067 11.9717C191.113 14.1204 192.307 16.0666 194.279 17.1977L202.433 21.8732C203.097 22.2547 203.499 22.9119 203.512 23.6365C203.534 24.8203 202.404 25.7885 201.131 25.7885H193.248L190.574 29.8932C190.593 29.924 190.597 29.9312 190.616 29.962H201.036C204.828 29.962 208.071 27.0754 207.998 23.5486C207.953 21.3992 206.76 19.4519 204.787 18.321" fill="black"/>
<path fill-rule="evenodd" clip-rule="evenodd" d="M173.082 25.7884V5.55664H168.596V29.9622H182.005L184.68 25.8572C184.661 25.8264 184.657 25.8192 184.638 25.7884H173.082Z" fill="black"/>
<path fill-rule="evenodd" clip-rule="evenodd" d="M58.4485 25.7942V5.5625H53.9619V29.9681H67.3714L70.0459 25.863C70.0274 25.8322 70.023 25.825 70.0043 25.7942H58.4485Z" fill="black"/>
<path fill-rule="evenodd" clip-rule="evenodd" d="M80.6006 5.44727V30.1127V30.1128H95.8263V30.1127V25.8945H84.6992V19.8891H94.3075V15.6708H84.6992V9.66556H95.8263V5.44727H80.6006Z" fill="black"/>
<path fill-rule="evenodd" clip-rule="evenodd" d="M139.6 5.44727V30.1127V30.1128H154.825V30.1127V25.8947H143.698V19.889H153.306V15.6709H143.698V9.66541H154.825V5.44727H139.6Z" fill="black"/>
<path fill-rule="evenodd" clip-rule="evenodd" d="M11.2487 0.984375L0 4.48385V33.9577C0.0246988 33.977 0.0346915 33.9845 0.0593903 34.0039L11.3081 30.504V1.03059C11.2832 1.01123 11.2734 1.00373 11.2487 0.984375" fill="black"/>
<path fill-rule="evenodd" clip-rule="evenodd" d="M14.7119 20.3319V33.9564C14.7366 33.9755 14.7464 33.9832 14.7713 34.0026L26.0198 30.5031V16.8782C25.9951 16.8589 25.9853 16.8512 25.9606 16.832L14.7119 20.3319Z" fill="black"/>
</svg>
